<svg width="16" height="16" viewBox="0 0 16 16" fill="none" xmlns="http://www.w3.org/2000/svg">
<g clip-path="url(#clip0)">
<path fill-rule="evenodd" clip-rule="evenodd" d="M8 0.199707C3.6 0.199707 0 3.79971 0 8.19971C0 11.6998 2.3 14.6998 5.5 15.7998C5.9 15.8998 6 15.5998 6 15.3998C6 15.1998 6 14.6998 6 13.9998C3.8 14.4998 3.3 12.9998 3.3 12.9998C2.9 12.0998 2.4 11.7998 2.4 11.7998C1.7 11.2998 2.5 11.2998 2.5 11.2998C3.3 11.3998 3.7 12.0998 3.7 12.0998C4.4 13.3998 5.6 12.9998 6 12.7998C6.1 12.2998 6.3 11.8998 6.5 11.6998C4.7 11.4998 2.9 10.7998 2.9 7.69971C2.9 6.79971 3.2 6.09971 3.7 5.59971C3.6 5.39971 3.3 4.59971 3.8 3.49971C3.8 3.49971 4.5 3.29971 6 4.29971C6.6 4.09971 7.3 3.99971 8 3.99971C8.7 3.99971 9.4 4.09971 10 4.29971C11.5 3.29971 12.2 3.49971 12.2 3.49971C12.6 4.59971 12.4 5.39971 12.3 5.59971C12.8 6.19971 13.1 6.89971 13.1 7.69971C13.1 10.7998 11.2 11.3998 9.4 11.5998C9.7 11.9998 10 12.4998 10 13.1998C10 14.2998 10 15.0998 10 15.3998C10 15.5998 10.1 15.8998 10.6 15.7998C13.8 14.6998 16.1 11.6998 16.1 8.19971C16 3.79971 12.4 0.199707 8 0.199707Z" fill="#0A121E"/>
</g>
<defs>
<clipPath id="clip0">
<rect width="16" height="16" fill="white"/>
</clipPath>
</defs>
</svg>
