<svg width="20" height="22" viewBox="0 0 20 22" fill="none" xmlns="http://www.w3.org/2000/svg">
<g clip-path="url(#clip0)" filter="url(#filter0_d)">
<path d="M15.968 0.683731C15.9554 0.624685 15.9273 0.570079 15.8865 0.525587C15.8457 0.481096 15.7937 0.448342 15.736 0.430731C15.5258 0.388809 15.3081 0.404355 15.106 0.475731C15.106 0.475731 1.08701 5.51373 0.286008 6.07173C0.114008 6.19273 0.0560079 6.26173 0.0270079 6.34373C-0.110992 6.74373 0.320008 6.91673 0.320008 6.91673L3.93301 8.09373C3.99401 8.10474 4.05676 8.10097 4.11601 8.08273C4.93801 7.56373 12.386 2.86073 12.816 2.70273C12.884 2.68273 12.934 2.70273 12.916 2.75173C12.744 3.35173 6.31001 9.07074 6.27501 9.10574C6.25794 9.12 6.24456 9.13818 6.23603 9.15872C6.2275 9.17927 6.22406 9.20157 6.22601 9.22374L5.88901 12.7518C5.88901 12.7518 5.74701 13.8518 6.84501 12.7518C7.62401 11.9728 8.37201 11.3268 8.74501 11.0138C9.98701 11.8718 11.324 12.8198 11.901 13.3138C11.9976 13.4079 12.1123 13.4815 12.2381 13.5301C12.3639 13.5787 12.4982 13.6014 12.633 13.5968C12.799 13.5763 12.9548 13.5058 13.0798 13.3947C13.2048 13.2836 13.2931 13.1372 13.333 12.9748C13.333 12.9748 15.894 2.69973 15.979 1.31673C15.987 1.18173 16 1.09973 16 0.999731C16.0037 0.893435 15.9929 0.787135 15.968 0.683731Z" fill="#0A121E"/>
</g>
<defs>
<filter id="filter0_d" x="-4" y="0" width="24" height="22" filterUnits="userSpaceOnUse" color-interpolation-filters="sRGB">
<feFlood flood-opacity="0" result="BackgroundImageFix"/>
<feColorMatrix in="SourceAlpha" type="matrix" values="0 0 0 0 0 0 0 0 0 0 0 0 0 0 0 0 0 0 127 0" result="hardAlpha"/>
<feOffset dy="4"/>
<feGaussianBlur stdDeviation="2"/>
<feComposite in2="hardAlpha" operator="out"/>
<feColorMatrix type="matrix" values="0 0 0 0 0 0 0 0 0 0 0 0 0 0 0 0 0 0 0.25 0"/>
<feBlend mode="normal" in2="BackgroundImageFix" result="effect1_dropShadow"/>
<feBlend mode="normal" in="SourceGraphic" in2="effect1_dropShadow" result="shape"/>
</filter>
<clipPath id="clip0">
<rect width="16" height="14" fill="white"/>
</clipPath>
</defs>
</svg>
