<svg width="107" height="81" viewBox="0 0 107 81" fill="none" xmlns="http://www.w3.org/2000/svg">
<g clip-path="url(#clip0)">
<path d="M6.35004 28.1787V13.3209C6.35004 10.2935 7.55607 7.38995 9.70285 5.24918C11.8496 3.10843 14.7612 1.90576 17.7972 1.90576H72.3079C75.3439 1.90576 78.2556 3.10843 80.4023 5.24918C82.5491 7.38995 83.7552 10.2935 83.7552 13.3209V67.6788C83.7552 69.1779 83.459 70.6623 82.8837 72.0472C82.3085 73.4322 81.4653 74.6905 80.4023 75.7506C79.3393 76.8106 78.0775 77.6514 76.6886 78.2251C75.2998 78.7988 73.8112 79.094 72.3079 79.094H17.7972C16.294 79.094 14.8055 78.7988 13.4166 78.2251C12.0278 77.6514 10.7658 76.8106 9.70285 75.7506C8.63988 74.6905 7.79668 73.4322 7.2214 72.0472C6.64613 70.6623 6.35004 69.1779 6.35004 67.6788V65.3636" stroke="#040F1F" stroke-width="4" stroke-linejoin="round"/>
<path d="M67.7037 79.0135H94.4947C96.8616 79.0135 99.1312 78.076 100.804 76.4072C102.478 74.7383 103.418 72.475 103.418 70.1149V10.8043C103.418 8.4443 102.478 6.18091 100.804 4.5121C99.1312 2.84329 96.8616 1.90576 94.4947 1.90576H92.4758" stroke="#040F1F" stroke-width="4" stroke-linejoin="round"/>
<path d="M43.922 59.1219C54.2582 59.1219 62.6373 50.7662 62.6373 40.459C62.6373 30.1517 54.2582 21.7961 43.922 21.7961C33.5858 21.7961 25.2067 30.1517 25.2067 40.459C25.2067 50.7662 33.5858 59.1219 43.922 59.1219Z" stroke="#040F1F" stroke-width="4" stroke-linejoin="round"/>
<path d="M43.9215 50.5463C49.5078 50.5463 54.0363 46.0305 54.0363 40.4599C54.0363 34.8894 49.5078 30.3735 43.9215 30.3735C38.3353 30.3735 33.8068 34.8894 33.8068 40.4599C33.8068 46.0305 38.3353 50.5463 43.9215 50.5463Z" fill="#1673FF"/>
<path d="M62.7178 21.7158L57.1657 27.2724" stroke="#040F1F" stroke-width="4" stroke-linejoin="round"/>
<path d="M30.6977 53.6472L25.1255 59.2038" stroke="#040F1F" stroke-width="4" stroke-linejoin="round"/>
<path d="M62.7178 59.2038L57.1657 53.6472" stroke="#040F1F" stroke-width="4" stroke-linejoin="round"/>
<path d="M30.6977 27.2724L25.1255 21.7158" stroke="#040F1F" stroke-width="4" stroke-linejoin="round"/>
<path d="M12.528 40.6609C12.5453 39.5479 12.2598 38.451 11.7019 37.4867C11.144 36.5225 10.3345 35.7271 9.35948 35.185C8.38446 34.6428 7.28037 34.3743 6.16454 34.4078C5.04873 34.4415 3.96287 34.776 3.02242 35.3756C2.08197 35.9754 1.32206 36.8181 0.823466 37.8141C0.324874 38.8101 0.106232 39.9222 0.190782 41.0322C0.275332 42.1423 0.659913 43.2086 1.30365 44.1181C1.94738 45.0276 2.82621 45.7461 3.84672 46.1974L6.35017 59.6459L8.85363 46.1974C9.94146 45.7333 10.8691 44.9616 11.5222 43.9777C12.1751 42.9938 12.5248 41.8408 12.528 40.6609Z" fill="#1673FF"/>
</g>
<defs>
<clipPath id="clip0">
<rect width="106.074" height="81" fill="white" transform="translate(0.173035)"/>
</clipPath>
</defs>
</svg>
