<svg width="109" height="81" viewBox="0 0 109 81" fill="none" xmlns="http://www.w3.org/2000/svg">
<g clip-path="url(#clip0)">
<path d="M14.8451 17.2956C14.2871 11.8282 13.5695 6.69206 12.6525 1.90576H76.1604C78.0685 12.9557 79.1607 24.1126 79.4295 35.2994C79.7605 49.9585 78.6664 64.6155 76.1604 79.094H12.6525C13.6293 73.4609 14.4664 67.3308 15.0446 60.6852" stroke="#040F1F" stroke-width="4"/>
<path d="M86.9365 79.0944C86.9365 79.0944 86.9365 22.6958 107.869 19.8569H78.5715" stroke="#040F1F" stroke-width="4"/>
<path d="M19.8972 51.069C22.309 51.6857 24.8005 52.0099 27.3158 52.0259C32.8011 51.9909 38.173 50.4907 42.8537 47.6864C47.5344 44.8823 51.3468 40.8803 53.881 36.111C51.8068 32.1997 48.8723 28.8043 45.3035 26.1624L36.544 34.7497C36.6149 35.1981 36.6505 35.6533 36.6495 36.111C36.6496 37.2686 36.4151 38.4147 35.9596 39.4828C35.5041 40.5508 34.8368 41.5196 33.9963 42.3326C33.1557 43.1458 32.1587 43.787 31.0633 44.2193C29.9678 44.6515 28.7957 44.8661 27.615 44.8506C27.1881 44.8459 26.7639 44.8112 26.3454 44.7477L19.8972 51.069Z" fill="#1673FF"/>
<path d="M34.9552 30.9598C33.9948 29.6577 32.6861 28.6377 31.1703 28.0145C29.5438 27.3458 27.7519 27.164 26.0201 27.4919C24.2884 27.8198 22.6945 28.6428 21.4391 29.8572C20.1836 31.0717 19.3229 32.6232 18.9653 34.3163C18.6078 36.0094 18.7694 37.7685 19.4297 39.3717C20.0601 40.9019 21.1179 42.225 22.4795 43.1901L15.8222 49.7164C14.4291 49.1426 13.0768 48.4648 11.7778 47.6865C7.09713 44.8824 3.28472 40.8804 0.750549 36.111C3.28126 31.3389 7.09287 27.3345 11.7743 24.5299C16.4558 21.7253 21.8294 20.2268 27.3158 20.196C32.4747 20.2249 37.534 21.5517 42.0119 24.0418L34.9552 30.9598Z" fill="#1673FF"/>
<path d="M50.1072 14.2942L5.53262 57.9921" stroke="#040F1F" stroke-width="4" stroke-linejoin="bevel"/>
</g>
<defs>
<clipPath id="clip0">
<rect width="108.075" height="81" fill="white" transform="translate(0.750549)"/>
</clipPath>
</defs>
</svg>
